<svg width="706" height="326" viewBox="0 0 706 326" fill="none" xmlns="http://www.w3.org/2000/svg">
<g filter="url(#filter0_d)">
<rect x="3" y="2" width="700" height="320" rx="12" fill="#FEF9D9"/>
</g>
<mask id="mask0" style="mask-type:alpha" maskUnits="userSpaceOnUse" x="3" y="2" width="700" height="320">
<rect x="3" y="2" width="700" height="320" rx="12" fill="#9F9DFA"/>
</mask>
<g mask="url(#mask0)">
<path d="M180 -103H406.5L607 426H180V-103Z" fill="#FDC57B"/>
<circle opacity="0.5" cx="253.5" cy="50.5" r="173.5" stroke="#6384B3" stroke-width="2"/>
<rect x="499" y="222" width="71" height="71" fill="#6384B3"/>
<rect x="428" y="293" width="71" height="71" fill="#6384B3"/>
</g>
<circle cx="401.5" cy="252.5" r="1.5" fill="#6384B3"/>
<circle cx="401.5" cy="258.5" r="1.5" fill="#6384B3"/>
<circle cx="401.5" cy="264.5" r="1.5" fill="#6384B3"/>
<circle cx="401.5" cy="270.5" r="1.5" fill="#6384B3"/>
<circle cx="401.5" cy="276.5" r="1.5" fill="#6384B3"/>
<circle cx="401.5" cy="282.5" r="1.5" fill="#6384B3"/>
<circle cx="401.5" cy="288.5" r="1.5" fill="#6384B3"/>
<circle cx="401.5" cy="294.5" r="1.5" fill="#6384B3"/>
<circle cx="401.5" cy="300.5" r="1.5" fill="#6384B3"/>
<circle cx="401.5" cy="306.5" r="1.5" fill="#6384B3"/>
<circle cx="401.5" cy="312.5" r="1.5" fill="#6384B3"/>
<circle cx="401.5" cy="318.5" r="1.5" fill="#6384B3"/>
<circle cx="408.5" cy="252.5" r="1.5" fill="#6384B3"/>
<circle cx="408.5" cy="258.5" r="1.5" fill="#6384B3"/>
<circle cx="408.5" cy="264.5" r="1.5" fill="#6384B3"/>
<circle cx="408.5" cy="270.5" r="1.5" fill="#6384B3"/>
<circle cx="408.5" cy="276.5" r="1.5" fill="#6384B3"/>
<circle cx="408.5" cy="282.5" r="1.5" fill="#6384B3"/>
<circle cx="408.5" cy="288.5" r="1.5" fill="#6384B3"/>
<circle cx="408.5" cy="294.5" r="1.5" fill="#6384B3"/>
<circle cx="408.5" cy="300.5" r="1.5" fill="#6384B3"/>
<circle cx="408.5" cy="306.5" r="1.5" fill="#6384B3"/>
<circle cx="408.5" cy="312.5" r="1.5" fill="#6384B3"/>
<circle cx="408.5" cy="318.5" r="1.5" fill="#6384B3"/>
<circle cx="415.5" cy="252.5" r="1.5" fill="#6384B3"/>
<circle cx="415.5" cy="258.5" r="1.5" fill="#6384B3"/>
<circle cx="415.5" cy="264.5" r="1.5" fill="#6384B3"/>
<circle cx="415.5" cy="270.5" r="1.5" fill="#6384B3"/>
<circle cx="415.5" cy="276.5" r="1.5" fill="#6384B3"/>
<circle cx="415.5" cy="282.5" r="1.5" fill="#6384B3"/>
<circle cx="415.5" cy="288.5" r="1.5" fill="#6384B3"/>
<circle cx="415.5" cy="294.5" r="1.5" fill="#6384B3"/>
<circle cx="415.5" cy="300.5" r="1.5" fill="#6384B3"/>
<circle cx="415.5" cy="306.5" r="1.5" fill="#6384B3"/>
<circle cx="415.5" cy="312.5" r="1.5" fill="#6384B3"/>
<circle cx="415.5" cy="318.5" r="1.5" fill="#6384B3"/>
<circle cx="422.5" cy="252.5" r="1.5" fill="#6384B3"/>
<circle cx="422.5" cy="258.5" r="1.5" fill="#6384B3"/>
<circle cx="422.5" cy="264.5" r="1.5" fill="#6384B3"/>
<circle cx="422.5" cy="270.5" r="1.5" fill="#6384B3"/>
<circle cx="422.5" cy="276.5" r="1.5" fill="#6384B3"/>
<circle cx="422.5" cy="282.5" r="1.5" fill="#6384B3"/>
<circle cx="422.5" cy="288.5" r="1.5" fill="#6384B3"/>
<circle cx="422.5" cy="294.5" r="1.5" fill="#6384B3"/>
<circle cx="422.5" cy="300.5" r="1.5" fill="#6384B3"/>
<circle cx="422.5" cy="306.5" r="1.5" fill="#6384B3"/>
<circle cx="422.5" cy="312.5" r="1.5" fill="#6384B3"/>
<circle cx="422.5" cy="318.5" r="1.5" fill="#6384B3"/>
<circle cx="429.5" cy="252.5" r="1.5" fill="#6384B3"/>
<circle cx="429.5" cy="258.5" r="1.5" fill="#6384B3"/>
<circle cx="429.5" cy="264.5" r="1.5" fill="#6384B3"/>
<circle cx="429.5" cy="270.5" r="1.5" fill="#6384B3"/>
<circle cx="429.5" cy="276.5" r="1.5" fill="#6384B3"/>
<circle cx="429.5" cy="282.5" r="1.5" fill="#6384B3"/>
<circle cx="429.5" cy="288.5" r="1.5" fill="#6384B3"/>
<circle cx="429.5" cy="294.5" r="1.5" fill="#6384B3"/>
<circle cx="429.5" cy="300.5" r="1.5" fill="#6384B3"/>
<circle cx="429.5" cy="306.5" r="1.5" fill="#6384B3"/>
<circle cx="429.5" cy="312.5" r="1.5" fill="#6384B3"/>
<circle cx="429.5" cy="318.5" r="1.5" fill="#6384B3"/>
<circle cx="436.5" cy="252.5" r="1.5" fill="#6384B3"/>
<circle cx="436.5" cy="258.5" r="1.5" fill="#6384B3"/>
<circle cx="436.5" cy="264.5" r="1.5" fill="#6384B3"/>
<circle cx="436.5" cy="270.5" r="1.5" fill="#6384B3"/>
<circle cx="436.5" cy="276.5" r="1.5" fill="#6384B3"/>
<circle cx="436.5" cy="282.5" r="1.5" fill="#6384B3"/>
<circle cx="436.5" cy="288.5" r="1.5" fill="#6384B3"/>
<circle cx="436.5" cy="294.5" r="1.5" fill="#6384B3"/>
<circle cx="436.5" cy="300.5" r="1.5" fill="#6384B3"/>
<circle cx="436.5" cy="306.5" r="1.5" fill="#6384B3"/>
<circle cx="436.5" cy="312.5" r="1.5" fill="#6384B3"/>
<circle cx="436.5" cy="318.5" r="1.5" fill="#6384B3"/>
<circle cx="443.5" cy="252.5" r="1.5" fill="#6384B3"/>
<circle cx="443.5" cy="258.5" r="1.5" fill="#6384B3"/>
<circle cx="443.5" cy="264.5" r="1.5" fill="#6384B3"/>
<circle cx="443.5" cy="270.5" r="1.5" fill="#6384B3"/>
<circle cx="443.5" cy="276.5" r="1.5" fill="#6384B3"/>
<circle cx="443.5" cy="282.5" r="1.5" fill="#6384B3"/>
<circle cx="443.5" cy="288.5" r="1.5" fill="#6384B3"/>
<circle cx="443.5" cy="294.5" r="1.5" fill="#6384B3"/>
<circle cx="443.5" cy="300.5" r="1.5" fill="#6384B3"/>
<circle cx="443.5" cy="306.5" r="1.5" fill="#6384B3"/>
<circle cx="443.5" cy="312.5" r="1.5" fill="#6384B3"/>
<circle cx="443.5" cy="318.5" r="1.5" fill="#6384B3"/>
<circle cx="450.5" cy="252.5" r="1.5" fill="#6384B3"/>
<circle cx="450.5" cy="258.5" r="1.5" fill="#6384B3"/>
<circle cx="450.5" cy="264.5" r="1.5" fill="#6384B3"/>
<circle cx="450.5" cy="270.5" r="1.5" fill="#6384B3"/>
<circle cx="450.5" cy="276.5" r="1.5" fill="#6384B3"/>
<circle cx="450.5" cy="282.5" r="1.5" fill="#6384B3"/>
<circle cx="450.5" cy="288.5" r="1.5" fill="#6384B3"/>
<circle cx="450.5" cy="294.5" r="1.5" fill="#6384B3"/>
<circle cx="450.5" cy="300.5" r="1.5" fill="#6384B3"/>
<circle cx="450.5" cy="306.5" r="1.5" fill="#6384B3"/>
<circle cx="450.5" cy="312.5" r="1.5" fill="#6384B3"/>
<circle cx="450.5" cy="318.5" r="1.5" fill="#6384B3"/>
<circle cx="457.5" cy="252.5" r="1.5" fill="#6384B3"/>
<circle cx="457.5" cy="258.5" r="1.5" fill="#6384B3"/>
<circle cx="457.5" cy="264.5" r="1.5" fill="#6384B3"/>
<circle cx="457.5" cy="270.5" r="1.5" fill="#6384B3"/>
<circle cx="457.5" cy="276.5" r="1.5" fill="#6384B3"/>
<circle cx="457.5" cy="282.5" r="1.5" fill="#6384B3"/>
<circle cx="457.5" cy="288.5" r="1.5" fill="#6384B3"/>
<circle cx="457.5" cy="294.5" r="1.5" fill="#6384B3"/>
<circle cx="457.5" cy="300.5" r="1.5" fill="#6384B3"/>
<circle cx="457.5" cy="306.5" r="1.5" fill="#6384B3"/>
<circle cx="457.5" cy="312.5" r="1.5" fill="#6384B3"/>
<circle cx="457.5" cy="318.5" r="1.5" fill="#6384B3"/>
<circle cx="464.5" cy="252.5" r="1.5" fill="#6384B3"/>
<circle cx="464.5" cy="258.5" r="1.5" fill="#6384B3"/>
<circle cx="464.5" cy="264.5" r="1.5" fill="#6384B3"/>
<circle cx="464.5" cy="270.5" r="1.5" fill="#6384B3"/>
<circle cx="464.5" cy="276.5" r="1.5" fill="#6384B3"/>
<circle cx="464.5" cy="282.5" r="1.5" fill="#6384B3"/>
<circle cx="464.5" cy="288.5" r="1.5" fill="#6384B3"/>
<circle cx="464.5" cy="294.5" r="1.5" fill="#6384B3"/>
<circle cx="464.5" cy="300.5" r="1.5" fill="#6384B3"/>
<circle cx="464.5" cy="306.5" r="1.5" fill="#6384B3"/>
<circle cx="464.5" cy="312.5" r="1.5" fill="#6384B3"/>
<circle cx="464.5" cy="318.5" r="1.5" fill="#6384B3"/>
<circle cx="471.5" cy="252.5" r="1.5" fill="#6384B3"/>
<circle cx="471.5" cy="258.5" r="1.5" fill="#6384B3"/>
<circle cx="471.5" cy="264.5" r="1.5" fill="#6384B3"/>
<circle cx="471.5" cy="270.5" r="1.5" fill="#6384B3"/>
<circle cx="471.5" cy="276.5" r="1.5" fill="#6384B3"/>
<circle cx="471.5" cy="282.5" r="1.5" fill="#6384B3"/>
<circle cx="471.5" cy="288.5" r="1.5" fill="#6384B3"/>
<circle cx="471.5" cy="294.5" r="1.5" fill="#6384B3"/>
<circle cx="471.5" cy="300.5" r="1.5" fill="#6384B3"/>
<circle cx="471.5" cy="306.5" r="1.5" fill="#6384B3"/>
<circle cx="471.5" cy="312.5" r="1.5" fill="#6384B3"/>
<circle cx="471.5" cy="318.5" r="1.5" fill="#6384B3"/>
<circle cx="325.5" cy="252.5" r="1.5" fill="#6384B3"/>
<circle cx="325.5" cy="258.5" r="1.5" fill="#6384B3"/>
<circle cx="325.5" cy="264.5" r="1.5" fill="#6384B3"/>
<circle cx="325.5" cy="270.5" r="1.5" fill="#6384B3"/>
<circle cx="325.5" cy="276.5" r="1.5" fill="#6384B3"/>
<circle cx="325.5" cy="282.5" r="1.5" fill="#6384B3"/>
<circle cx="325.5" cy="288.5" r="1.5" fill="#6384B3"/>
<circle cx="325.5" cy="294.5" r="1.5" fill="#6384B3"/>
<circle cx="325.5" cy="300.5" r="1.5" fill="#6384B3"/>
<circle cx="325.5" cy="306.5" r="1.5" fill="#6384B3"/>
<circle cx="325.5" cy="312.5" r="1.5" fill="#6384B3"/>
<circle cx="325.5" cy="318.5" r="1.5" fill="#6384B3"/>
<circle cx="332.5" cy="252.5" r="1.5" fill="#6384B3"/>
<circle cx="332.5" cy="258.5" r="1.5" fill="#6384B3"/>
<circle cx="332.5" cy="264.5" r="1.5" fill="#6384B3"/>
<circle cx="332.5" cy="270.5" r="1.5" fill="#6384B3"/>
<circle cx="332.5" cy="276.5" r="1.5" fill="#6384B3"/>
<circle cx="332.5" cy="282.5" r="1.5" fill="#6384B3"/>
<circle cx="332.5" cy="288.5" r="1.5" fill="#6384B3"/>
<circle cx="332.5" cy="294.5" r="1.5" fill="#6384B3"/>
<circle cx="332.5" cy="300.5" r="1.5" fill="#6384B3"/>
<circle cx="332.5" cy="306.5" r="1.5" fill="#6384B3"/>
<circle cx="332.5" cy="312.5" r="1.5" fill="#6384B3"/>
<circle cx="332.5" cy="318.5" r="1.5" fill="#6384B3"/>
<circle cx="339.5" cy="252.5" r="1.5" fill="#6384B3"/>
<circle cx="339.5" cy="258.5" r="1.5" fill="#6384B3"/>
<circle cx="339.5" cy="264.5" r="1.5" fill="#6384B3"/>
<circle cx="339.5" cy="270.5" r="1.5" fill="#6384B3"/>
<circle cx="339.5" cy="276.5" r="1.5" fill="#6384B3"/>
<circle cx="339.5" cy="282.5" r="1.5" fill="#6384B3"/>
<circle cx="339.5" cy="288.5" r="1.5" fill="#6384B3"/>
<circle cx="339.5" cy="294.5" r="1.5" fill="#6384B3"/>
<circle cx="339.5" cy="300.5" r="1.5" fill="#6384B3"/>
<circle cx="339.5" cy="306.5" r="1.5" fill="#6384B3"/>
<circle cx="339.5" cy="312.5" r="1.5" fill="#6384B3"/>
<circle cx="339.5" cy="318.5" r="1.5" fill="#6384B3"/>
<circle cx="346.5" cy="252.5" r="1.5" fill="#6384B3"/>
<circle cx="346.5" cy="258.5" r="1.5" fill="#6384B3"/>
<circle cx="346.5" cy="264.5" r="1.5" fill="#6384B3"/>
<circle cx="346.5" cy="270.5" r="1.5" fill="#6384B3"/>
<circle cx="346.5" cy="276.5" r="1.5" fill="#6384B3"/>
<circle cx="346.5" cy="282.5" r="1.5" fill="#6384B3"/>
<circle cx="346.5" cy="288.5" r="1.5" fill="#6384B3"/>
<circle cx="346.5" cy="294.5" r="1.5" fill="#6384B3"/>
<circle cx="346.5" cy="300.5" r="1.5" fill="#6384B3"/>
<circle cx="346.5" cy="306.5" r="1.5" fill="#6384B3"/>
<circle cx="346.5" cy="312.5" r="1.5" fill="#6384B3"/>
<circle cx="346.5" cy="318.5" r="1.5" fill="#6384B3"/>
<circle cx="353.5" cy="252.5" r="1.5" fill="#6384B3"/>
<circle cx="353.5" cy="258.5" r="1.5" fill="#6384B3"/>
<circle cx="353.5" cy="264.5" r="1.5" fill="#6384B3"/>
<circle cx="353.5" cy="270.5" r="1.5" fill="#6384B3"/>
<circle cx="353.5" cy="276.5" r="1.5" fill="#6384B3"/>
<circle cx="353.5" cy="282.5" r="1.5" fill="#6384B3"/>
<circle cx="353.5" cy="288.5" r="1.5" fill="#6384B3"/>
<circle cx="353.5" cy="294.5" r="1.5" fill="#6384B3"/>
<circle cx="353.5" cy="300.5" r="1.5" fill="#6384B3"/>
<circle cx="353.5" cy="306.5" r="1.5" fill="#6384B3"/>
<circle cx="353.5" cy="312.5" r="1.5" fill="#6384B3"/>
<circle cx="353.5" cy="318.5" r="1.5" fill="#6384B3"/>
<circle cx="360.5" cy="252.5" r="1.5" fill="#6384B3"/>
<circle cx="360.5" cy="258.5" r="1.5" fill="#6384B3"/>
<circle cx="360.5" cy="264.5" r="1.5" fill="#6384B3"/>
<circle cx="360.5" cy="270.5" r="1.5" fill="#6384B3"/>
<circle cx="360.5" cy="276.5" r="1.5" fill="#6384B3"/>
<circle cx="360.5" cy="282.5" r="1.5" fill="#6384B3"/>
<circle cx="360.5" cy="288.5" r="1.5" fill="#6384B3"/>
<circle cx="360.5" cy="294.5" r="1.5" fill="#6384B3"/>
<circle cx="360.5" cy="300.5" r="1.5" fill="#6384B3"/>
<circle cx="360.5" cy="306.5" r="1.5" fill="#6384B3"/>
<circle cx="360.5" cy="312.5" r="1.5" fill="#6384B3"/>
<circle cx="360.5" cy="318.5" r="1.5" fill="#6384B3"/>
<circle cx="367.5" cy="252.5" r="1.5" fill="#6384B3"/>
<circle cx="367.5" cy="258.5" r="1.5" fill="#6384B3"/>
<circle cx="367.5" cy="264.5" r="1.5" fill="#6384B3"/>
<circle cx="367.5" cy="270.5" r="1.5" fill="#6384B3"/>
<circle cx="367.5" cy="276.5" r="1.5" fill="#6384B3"/>
<circle cx="367.5" cy="282.5" r="1.5" fill="#6384B3"/>
<circle cx="367.5" cy="288.5" r="1.5" fill="#6384B3"/>
<circle cx="367.5" cy="294.5" r="1.5" fill="#6384B3"/>
<circle cx="367.5" cy="300.5" r="1.5" fill="#6384B3"/>
<circle cx="367.5" cy="306.5" r="1.5" fill="#6384B3"/>
<circle cx="367.5" cy="312.5" r="1.5" fill="#6384B3"/>
<circle cx="367.5" cy="318.5" r="1.5" fill="#6384B3"/>
<circle cx="374.5" cy="252.5" r="1.5" fill="#6384B3"/>
<circle cx="374.5" cy="258.5" r="1.5" fill="#6384B3"/>
<circle cx="374.5" cy="264.5" r="1.5" fill="#6384B3"/>
<circle cx="374.5" cy="270.5" r="1.5" fill="#6384B3"/>
<circle cx="374.5" cy="276.5" r="1.5" fill="#6384B3"/>
<circle cx="374.5" cy="282.5" r="1.5" fill="#6384B3"/>
<circle cx="374.5" cy="288.5" r="1.5" fill="#6384B3"/>
<circle cx="374.5" cy="294.5" r="1.5" fill="#6384B3"/>
<circle cx="374.5" cy="300.5" r="1.5" fill="#6384B3"/>
<circle cx="374.5" cy="306.5" r="1.5" fill="#6384B3"/>
<circle cx="374.5" cy="312.5" r="1.5" fill="#6384B3"/>
<circle cx="374.5" cy="318.5" r="1.5" fill="#6384B3"/>
<circle cx="381.5" cy="252.5" r="1.5" fill="#6384B3"/>
<circle cx="381.5" cy="258.5" r="1.5" fill="#6384B3"/>
<circle cx="381.5" cy="264.5" r="1.5" fill="#6384B3"/>
<circle cx="381.5" cy="270.5" r="1.5" fill="#6384B3"/>
<circle cx="381.5" cy="276.5" r="1.5" fill="#6384B3"/>
<circle cx="381.5" cy="282.5" r="1.5" fill="#6384B3"/>
<circle cx="381.5" cy="288.5" r="1.5" fill="#6384B3"/>
<circle cx="381.5" cy="294.5" r="1.5" fill="#6384B3"/>
<circle cx="381.5" cy="300.5" r="1.5" fill="#6384B3"/>
<circle cx="381.5" cy="306.5" r="1.5" fill="#6384B3"/>
<circle cx="381.5" cy="312.5" r="1.5" fill="#6384B3"/>
<circle cx="381.5" cy="318.5" r="1.5" fill="#6384B3"/>
<circle cx="388.5" cy="252.5" r="1.5" fill="#6384B3"/>
<circle cx="388.5" cy="258.5" r="1.5" fill="#6384B3"/>
<circle cx="388.5" cy="264.5" r="1.5" fill="#6384B3"/>
<circle cx="388.5" cy="270.5" r="1.5" fill="#6384B3"/>
<circle cx="388.5" cy="276.5" r="1.5" fill="#6384B3"/>
<circle cx="388.5" cy="282.5" r="1.5" fill="#6384B3"/>
<circle cx="388.5" cy="288.5" r="1.5" fill="#6384B3"/>
<circle cx="388.5" cy="294.5" r="1.5" fill="#6384B3"/>
<circle cx="388.5" cy="300.5" r="1.5" fill="#6384B3"/>
<circle cx="388.5" cy="306.5" r="1.5" fill="#6384B3"/>
<circle cx="388.5" cy="312.5" r="1.5" fill="#6384B3"/>
<circle cx="388.5" cy="318.5" r="1.5" fill="#6384B3"/>
<circle cx="395.5" cy="252.5" r="1.5" fill="#6384B3"/>
<circle cx="395.5" cy="258.5" r="1.5" fill="#6384B3"/>
<circle cx="395.5" cy="264.5" r="1.5" fill="#6384B3"/>
<circle cx="395.5" cy="270.5" r="1.5" fill="#6384B3"/>
<circle cx="395.5" cy="276.5" r="1.5" fill="#6384B3"/>
<circle cx="395.5" cy="282.5" r="1.5" fill="#6384B3"/>
<circle cx="395.5" cy="288.5" r="1.5" fill="#6384B3"/>
<circle cx="395.5" cy="294.5" r="1.5" fill="#6384B3"/>
<circle cx="395.5" cy="300.5" r="1.5" fill="#6384B3"/>
<circle cx="395.5" cy="306.5" r="1.5" fill="#6384B3"/>
<circle cx="395.5" cy="312.5" r="1.5" fill="#6384B3"/>
<circle cx="395.5" cy="318.5" r="1.5" fill="#6384B3"/>
<defs>
<filter id="filter0_d" x="0" y="0" width="706" height="326" filterUnits="userSpaceOnUse" color-interpolation-filters="sRGB">
<feFlood flood-opacity="0" result="BackgroundImageFix"/>
<feColorMatrix in="SourceAlpha" type="matrix" values="0 0 0 0 0 0 0 0 0 0 0 0 0 0 0 0 0 0 127 0" result="hardAlpha"/>
<feOffset dy="1"/>
<feGaussianBlur stdDeviation="1.5"/>
<feColorMatrix type="matrix" values="0 0 0 0 0.243137 0 0 0 0 0.262745 0 0 0 0 0.45098 0 0 0 0.3 0"/>
<feBlend mode="normal" in2="BackgroundImageFix" result="effect1_dropShadow"/>
<feBlend mode="normal" in="SourceGraphic" in2="effect1_dropShadow" result="shape"/>
</filter>
</defs>
</svg>
